# xmcd
#
# Track frame offsets:
#	150
#	6668
#	33410
#	54717
#	76160
#	99902
#	114029
#	137623
#	157150
#	186450
#
# Disc length: 2907 seconds
#
# Revision: 2
# Processed by: cddbd v1.5.2PL0 Copyright (c) Steve Scherf et al.
# Submitted via: audiograbber 1.83.01
#
DISCID=7d0b590a
DTITLE=Cornerstone - In Concert [CD 1)
DYEAR=2005
DGENRE=Blues
TTITLE0=Intro
TTITLE1=Wolcome To Forever
TTITLE2=Wounded Land
TTITLE3=Future Rising
TTITLE4=Passion To Warfare
TTITLE5=21st Century Man
TTITLE6=House Of Nevermore
TTITLE7=When The Hammer Falls
TTITLE8=Some People Fly
TTITLE9=Once Upon Our Yesterdays - Gtr Solo
EXTD=
EXTT0=
EXTT1=
EXTT2=
EXTT3=
EXTT4=
EXTT5=
EXTT6=
EXTT7=
EXTT8=
EXTT9=
PLAYORDER=
